# AST/ASF file generated using VICON BodyLanguage
# -----------------------------------------------
:version 1.10
:name VICON
:units
  mass 1.0
  length 0.45
  angle deg
:documentation
   .ast/.asf automatically generated from VICON data using
   VICON BodyBuilder and BodyLanguage model FoxedUp or BRILLIANT.MOD
:root
   order TX TY TZ RX RY RZ
   axis XYZ
   position 0 0 0  
   orientation 0 0 0 
:bonedata
  begin
     id 1 
     name lhipjoint
     direction 0.575328 -0.747301 0.332475 
     length 2.40933 
     axis 0 0 0  XYZ
  end
  begin
     id 2 
     name lfemur
     direction 0.34202 -0.939693 0  
     length 7.31453  
     axis 0 0 20  XYZ
    dof rx ry rz
    limits (-160.0 20.0)
           (-70.0 70.0)
           (-60.0 70.0)
  end
  begin
     id 3 
     name ltibia
     direction 0.34202 -0.939693 0   
     length 7.82185   
     axis 0 0 20   XYZ
    dof rx
    limits (-10.0 170.0)
  end
  begin
     id 4 
     name lfoot
     direction 0.0795993 -0.218697 0.972541   
     length 2.19173   
     axis -90 7.62852e-016 20   XYZ
    dof rx rz
    limits (-45.0 90.0)
           (-70.0 20.0)
  end
  begin
     id 5 
     name ltoes
     direction 1.53537e-011 -4.21894e-011 1   
     length 1.10023   
     axis -90 7.62852e-016 20   XYZ
    dof rx
    limits (-90.0 20.0)
  end
  begin
     id 6 
     name rhipjoint
     direction -0.513884 -0.783789 0.348708   
     length 2.29716  
     axis 0 0 0  XYZ 
  end
  begin
     id 7 
     name rfemur
     direction -0.34202 -0.939693 0   
     length 7.59573   
     axis 0 0 -20   XYZ
    dof rx ry rz
    limits (-160.0 20.0)
           (-70.0 70.0)
           (-70.0 60.0)
  end
  begin
     id 8 
     name rtibia
     direction -0.34202 -0.939693 0   
     length 7.66402   
     axis 0 0 -20   XYZ
    dof rx
    limits (-10.0 170.0)
 end
 begin
     id 9 
     name rfoot
     direction -0.137793 -0.378584 0.915253   
     length 2.27056  
     axis -90 -7.62852e-016 -20   XYZ
    dof rx rz
    limits (-45.0 90.0)
           (-20.0 70.0)
  end
  begin
     id 10 
     name rtoes
     direction -1.53493e-011 -4.22159e-011 1   
     length 1.11766   
     axis -90 -7.62852e-016 -20   XYZ
    dof rx
    limits (-90.0 20.0)
  end
  begin
     id 11 
     name lowerback
     direction -0.00732775 0.998356 -0.05685   
     length 2.16513   
     axis 0 0 0   XYZ
    dof rx ry rz
    limits (-20.0 45.0)
           (-30.0 30.0)
           (-30.0 30.0)
  end
  begin
     id 12 
     name upperback
     direction 0.0218081 0.999627 -0.0164647   
     length 2.16755   
     axis 0 0 0   XYZ
    dof rx ry rz
    limits (-20.0 45.0)
           (-30.0 30.0)
           (-30.0 30.0)
  end
  begin
     id 13 
     name thorax
     direction 0.02365 0.999661 0.0108914   
     length 2.16932   
     axis 0 0 0   XYZ
    dof rx ry rz
    limits (-20.0 45.0)
           (-30.0 30.0)
           (-30.0 30.0)
  end
  begin
     id 14 
     name lowerneck
     direction -0.0523929 0.978385 0.200044   
     length 1.63877   
     axis 0 0 0   XYZ
    dof rx ry rz
    limits (-20.0 45.0)
           (-30.0 30.0)
           (-30.0 30.0)
  end
  begin
     id 15 
     name upperneck
     direction 0.0448674 0.981321 -0.187074   
     length 1.69014   
     axis 0 0 0   XYZ
    dof rx ry rz
    limits (-20.0 45.0)
           (-30.0 30.0)
           (-30.0 30.0)
  end
  begin
     id 16
     name head
     direction 0.0199089 0.996118 -0.0857429  
     length 1.70094  
     axis 0 0 0   XYZ
    dof rx ry rz
    limits (-20.0 45.0)
           (-30.0 30.0)
           (-30.0 30.0)
  end
  begin
     id 17 
     name lclavicle
     direction 0.940366 0.30191 -0.156722  
     length 3.37521  
     axis 0 0 0   XYZ
    dof ry rz
    limits (-20.0 10.0)
           (0.0 20.0)
  end
  begin
     id 18 
     name lhumerus
     direction 1 -4.4897e-011 -1.7911e-027   
     length 5.25287   
     axis 180 -30 -90   XYZ
    dof rx ry rz
    limits (-60.0 90.0)
           (-90.0 90.0)
           (-90.0 90.0)
  end
  begin
     id 19
     name lradius
     direction 1 -4.48951e-011 1.04424e-027   
     length 3.51014   
     axis 180 -30 -90   XYZ
    dof rx
    limits (-10.0 170.0)
  end
  begin
     id 20
     name lwrist
     direction 1 -4.48997e-011 -9.5942e-028   
     length 1.75507   
     axis 8.48502e-016 90 90   XYZ
    dof ry
    limits (-180.0 0.0)
 end
  begin
     id 21 
     name lhand
     direction 1 -4.48831e-011 -1.90777e-027   
     length 0.706179   
     axis 1.22306e-015 90 90   XYZ
    dof rx rz
    limits (-90.0 90.0)
           (-45.0 45.0)
  end
  begin
     id 22 
     name lfingers
     direction 1 -4.49108e-011 -3.85244e-027   
     length 0.569339   
     axis 2.44611e-015 90 90   XYZ
    dof rx
    limits (0.0 90.0)
  end
  begin
     id 23
     name lthumb
     direction 0.707107 -6.34953e-011 0.707107   
     length 0.817461   
     axis -90 45 -1.62303e-014   XYZ
    dof rx rz
    limits (-45.0 45.0)
           (-45.0 45.0)
  end
  begin
     id 24 
     name rclavicle
     direction -0.905329 0.382405 -0.184787   
     length 3.30787  
     axis 0 0 0   XYZ 
    dof ry rz
    limits (-10.0 20.0)
           (-20.0 0.0)
  end
  begin
     id 25 
     name rhumerus
     direction -1 -4.48953e-011 -9.15316e-029  
     length 5.28721   
     axis 180 30 90   XYZ
    dof rx ry rz
    limits (-90.0 60.0)
           (-90.0 90.0)
           (-90.0 90.0)
  end
  begin
     id 26 
     name rradius
     direction -1 -4.48987e-011 9.37824e-028   
     length 3.50544   
     axis 180 30 90   XYZ
    dof rx
    limits (-10.0 170.0)
  end
  begin
     id 27 
     name rwrist
     direction -1 -4.48967e-011 -9.58414e-028   
     length 1.75272   
     axis 8.48502e-016 -90 -90   XYZ
    dof ry
    limits (-180.0 0.0)
  end
  begin
     id 28
     name rhand
     direction -1 -4.48904e-011 -1.91266e-027   
     length 0.884996   
     axis 1.22306e-015 -90 -90   XYZ
    dof rx rz
    limits (-90.0 90.0)
           (-45.0 45.0)
  end
  begin
     id 29
     name rfingers
     direction -1 -4.4909e-011 -3.85015e-027   
     length 0.713507   
     axis 2.44611e-015 -90 -90   XYZ
    dof rx
    limits (0.0 90.0)
  end
  begin
     id 30
     name rthumb
     direction -0.707107 -6.34853e-011 0.707107   
     length 1.02446   
     axis -90 -45 1.62303e-014   XYZ
    dof rx rz
    limits (-45.0 45.0)
           (-45.0 45.0)
  end
:hierarchy
  begin
    root lhipjoint rhipjoint lowerback
    lhipjoint lfemur
    lfemur ltibia
    ltibia lfoot
    lfoot ltoes
    rhipjoint rfemur
    rfemur rtibia
    rtibia rfoot
    rfoot rtoes
    lowerback upperback
    upperback thorax
    thorax lowerneck lclavicle rclavicle
    lowerneck upperneck
    upperneck head
    lclavicle lhumerus
    lhumerus lradius
    lradius lwrist
    lwrist lhand lthumb
    lhand lfingers
    rclavicle rhumerus
    rhumerus rradius
    rradius rwrist
    rwrist rhand rthumb
    rhand rfingers
  end

#!OML:ASF F:\twosubjects\two\Thursday\Session 1\justin.ASF
:FULLY-SPECIFIED
:DEGREES
166
root -3.49321 17.9009 13.1196 2.60016 8.51438 5.25621
lowerback 0.538644 -1.4998 -7.67238
upperback 1.34773 -2.00489 1.72947
thorax 1.42437 -1.10836 6.09136
lowerneck -18.1831 -6.54222 -11.0142
upperneck 29.6825 -7.88113 6.04863
head 13.8417 -3.87245 2.90366
rclavicle -1.53064e-014 -1.11319e-014
rhumerus -36.1173 -39.7499 -61.6371
rradius 23.964
rwrist 4.44694
rhand -16.9867 11.6586
rfingers 7.12502
rthumb 9.24822 -18.1186
lclavicle -1.53064e-014 -1.11319e-014
lhumerus -21.6574 0.52749 83.8116
lradius 47.323
lwrist -4.36334
lhand 0.974003 42.8623
lfingers 7.12502
lthumb -153.477 -108.974
rfemur -33.4448 -8.93523 17.9791
rtibia 30.059
rfoot -8.39057 -15.2704
rtoes -7.68212
lfemur 17.1612 -1.39165 -23.0527
ltibia 0
lfoot -10.8791 -5.16324
ltoes -27.1033
167
root -3.51841 17.9208 13.2783 2.68098 8.83177 5.35174
lowerback 0.432906 -1.59373 -7.81962
upperback 1.03519 -2.13191 1.82572
thorax 1.18926 -1.15429 6.27653
lowerneck -16.8051 -6.37519 -11.8071
upperneck 29.4506 -7.76793 6.75677
head 13.5113 -3.84793 3.36839
rclavicle 1.89839e-014 7.95139e-016
rhumerus -35.9779 -38.5224 -62.3257
rradius 24.1498
rwrist 4.19293
rhand -16.8883 11.2482
rfingers 7.12502
rthumb 9.34313 -18.5247
lclavicle 1.89839e-014 7.95139e-016
lhumerus -22.1722 0.364687 84.0756
lradius 48.5066
lwrist -4.34426
lhand 1.39574 43.1159
lfingers 7.12502
lthumb -153.073 -108.782
rfemur -33.195 -8.64733 17.6862
rtibia 30.0774
rfoot -6.77785 -15.6083
rtoes -5.03818
lfemur 17.5527 -1.947 -23.0002
ltibia 5.08889e-014
lfoot -9.90136 -5.51969
ltoes -27.3069
168
root -3.54588 17.9476 13.4392 2.49315 9.06251 4.85389
lowerback 0.338857 -1.68577 -7.3409
upperback 1.39932 -2.24105 2.01458
thorax 1.62703 -1.23505 6.19113
lowerneck -17.8471 -6.39146 -10.8118
upperneck 29.4473 -7.5067 5.32143
head 13.5844 -3.78836 2.65004
rclavicle -3.97569e-015 -6.36111e-015
rhumerus -34.2933 -38.1707 -63.9608
rradius 23.9906
rwrist 4.06773
rhand -16.8426 11.4694
rfingers 7.12502
rthumb 9.38723 -18.3015
lclavicle -3.97569e-015 -6.36111e-015
lhumerus -21.181 0.116751 84.1353
lradius 49.1059
lwrist -4.02595
lhand 0.72417 42.1584
lfingers 7.12502
lthumb -153.716 -109.642
rfemur -32.6278 -7.74456 17.7971
rtibia 30.0231
rfoot -5.84548 -16.0739
rtoes 1.95439
lfemur 18.1317 -2.39507 -22.3081
ltibia -2.54444e-014
lfoot -8.68324 -5.75884
ltoes -27.7289
169
root -3.57621 17.9827 13.6012 2.32159 9.02427 4.27755
lowerback 0.583483 -1.6288 -6.8408
upperback 1.22576 -2.18971 2.25139
thorax 1.28955 -1.18654 6.16752
lowerneck -19.3189 -6.76419 -11.4111
upperneck 31.12 -7.92613 5.78828
head 14.7442 -3.96055 2.85398
rclavicle -1.13307e-014 3.65764e-014
rhumerus -33.7597 -37.2153 -64.9068
rradius 24.1462
rwrist 3.41753
rhand -16.615 11.6109
rfingers 7.12502
rthumb 9.60683 -18.1501
lclavicle -1.13307e-014 3.65764e-014
lhumerus -21.211 -0.215344 84.3289
lradius 49.63
lwrist -3.55999
lhand -1.31807 40.4099
lfingers 7.12502
lthumb -155.673 -111.114
rfemur -32.1807 -6.74652 18.0513
rtibia 30.0162
rfoot -5.11063 -16.0871
rtoes 10.2752
lfemur 18.7626 -2.59219 -21.4865
ltibia -1.27222e-014
lfoot -7.50026 -6.00701
ltoes -25.8842
170
root -3.59621 18.0054 13.7551 2.53577 8.89063 4.18588
lowerback 0.317449 -1.60928 -6.79407
upperback 0.969026 -2.15246 2.3777
thorax 1.16999 -1.1558 6.27095
lowerneck -19.0875 -6.78312 -11.6007
upperneck 31.5358 -7.91318 5.7115
head 14.8893 -3.99725 2.86849
rclavicle 4.07509e-014 2.06736e-014
rhumerus -33.4501 -36.6276 -65.5265
rradius 24.3399
rwrist 3.40032
rhand -16.3879 11.5255
rfingers 7.12502
rthumb 9.8259 -18.2253
lclavicle 4.07509e-014 2.06736e-014
lhumerus -21.3846 -0.462645 84.5222
lradius 50.041
lwrist -3.09965
lhand -2.47357 38.7419
lfingers 7.12502
lthumb -156.781 -112.638
rfemur -32.1383 -6.85055 18.3767
rtibia 30.0552
rfoot -3.79197 -15.4552
rtoes 11.797
lfemur 19.0653 -2.70512 -21.2246
ltibia 5.725e-014
lfoot -6.50364 -6.32728
ltoes -24.7098
171
root -3.60803 18.0206 13.9082 2.78396 8.8117 4.46883
lowerback 0.00933148 -1.67064 -7.00806
upperback 0.84449 -2.21584 2.38735
thorax 1.2333 -1.18829 6.3947
lowerneck -18.4835 -6.62983 -11.7392
upperneck 31.2804 -7.71327 5.7493
head 14.625 -3.93349 2.95552
rclavicle -1.16786e-014 3.18055e-015
rhumerus -32.8595 -35.9708 -66.3466
rradius 24.5083
rwrist 3.19952
rhand -16.1272 11.3294
rfingers 7.12502
rthumb 10.0774 -18.4093
lclavicle -1.16786e-014 3.18055e-015
lhumerus -21.4666 -0.65397 84.6397
lradius 50.5535
lwrist -2.70611
lhand -2.65328 37.3138
lfingers 7.12502
lthumb -156.953 -114.044
rfemur -32.0115 -7.63485 18.5626
rtibia 30.1981
rfoot -2.87771 -14.7781
rtoes 9.27767
lfemur 15.9382 -2.7885 -21.4605
ltibia 6.53741
lfoot -8.80629 -5.89845
ltoes -28.7931
172
root -3.63895 18.0314 14.0673 2.74646 8.59977 4.04888
lowerback 0.145768 -1.60928 -6.70848
upperback 0.67728 -2.14882 2.62632
thorax 0.969868 -1.13809 6.48445
lowerneck -18.1231 -6.4235 -11.8314
upperneck 31.2665 -7.42193 5.75478
head 14.5102 -3.82644 3.03724
rclavicle 4.96962e-016 -1.43125e-014
rhumerus -32.4292 -34.6835 -67.2896
rradius 24.9585
rwrist 2.18271
rhand -15.8052 11.3265
rfingers 7.12502
rthumb 10.3881 -18.3969
lclavicle 4.96962e-016 -1.43125e-014
lhumerus -21.7487 -1.15808 84.817
lradius 51.2086
lwrist -2.15456
lhand -2.76512 36.1661
lfingers 7.12502
lthumb -157.061 -115.179
rfemur -31.6675 -7.64547 19.3606
rtibia 30.5362
rfoot -3.01014 -14.7193
rtoes 7.22629
lfemur 14.1756 -2.74491 -20.8948
ltibia 10.7401
lfoot -9.91302 -5.66769
ltoes -32.7209
173
root -3.6786 18.0397 14.2207 2.6467 8.28512 3.00439
lowerback 0.360221 -1.38816 -5.74715
upperback 0.365174 -1.87051 2.98067
thorax 0.460549 -0.966106 6.32334
lowerneck -18.0059 -6.49143 -12.1449
upperneck 31.6703 -7.52514 5.95909
head 14.7076 -3.88805 3.16626
rclavicle -8.84592e-015 -8.74653e-015
rhumerus -32.5056 -33.9981 -67.7222
rradius 25.3164
rwrist 1.60883
rhand -15.7018 11.5425
rfingers 7.12502
rthumb 10.4879 -18.1758
lclavicle -8.84592e-015 -8.74653e-015
lhumerus -22.2364 -1.84065 85.097
lradius 51.8437
lwrist -1.71806
lhand -2.91196 35.422
lfingers 7.12502
lthumb -157.202 -115.905
rfemur -31.3458 -7.43963 20.8821
rtibia 30.9509
rfoot -3.36988 -14.5223
rtoes 3.96992
lfemur 13.0409 -2.82354 -19.6271
ltibia 13.6604
lfoot -10.1217 -5.6269
ltoes -35.35
174
root -3.70216 18.0565 14.3722 2.76897 8.03239 2.89689
lowerback 0.257482 -1.20878 -5.49305
upperback 0.14996 -1.62651 2.99762
thorax 0.251653 -0.829424 6.1983
lowerneck -18.1623 -6.74221 -12.3311
upperneck 32.0688 -7.85112 5.99657
head 14.9801 -4.04609 3.15458
rclavicle -4.51738e-014 7.95139e-015
rhumerus -32.2881 -33.8705 -68.0992
rradius 25.2854
rwrist 1.4666
rhand -15.774 11.6414
rfingers 7.12502
rthumb 10.4182 -18.0805
lclavicle -4.51738e-014 7.95139e-015
lhumerus -22.5326 -1.96809 85.3234
lradius 52.4362
lwrist -1.96044
lhand -2.81013 36.2166
lfingers 7.12502
lthumb -157.104 -115.123
rfemur -31.119 -7.82917 21.3831
rtibia 31.3525
rfoot -3.78994 -13.5148
rtoes 0.225062
lfemur 11.8595 -2.99035 -19.4373
ltibia 16.4723
lfoot -9.786 -5.78568
ltoes -36.5692
175
root -3.72467 18.1071 14.539 2.80479 7.57907 3.2976
lowerback -0.0527889 -1.0932 -5.86454
upperback 0.267302 -1.45579 2.89149
thorax 0.528727 -0.757567 6.29269
lowerneck -18.6477 -6.7674 -11.7731
upperneck 32.286 -7.80676 5.37353
head 15.12 -4.03643 2.79887
rclavicle 2.87244e-014 -8.74653e-015
rhumerus -31.4549 -33.6013 -69.0361
rradius 25.3688
rwrist 1.23975
rhand -15.5393 11.5743
rfingers 7.12502
rthumb 10.6446 -18.1361
lclavicle 2.87244e-014 -8.74653e-015
lhumerus -22.5687 -1.57262 85.3522
lradius 53.1021
lwrist -2.52733
lhand -2.56733 38.3693
lfingers 7.12502
lthumb -156.871 -112.999
rfemur -30.8504 -7.14846 20.6609
rtibia 31.5928
rfoot -4.79033 -12.9877
rtoes 2.70738
lfemur 10.9414 -2.91223 -19.8436
ltibia 19.0629
lfoot -8.74742 -5.92707
ltoes -37.7261
176
root -3.74709 18.1189 14.7083 2.64816 7.02782 3.26604
lowerback -0.0703056 -0.985992 -5.83567
upperback 0.223918 -1.31215 2.92267
thorax 0.471812 -0.682149 6.31095
lowerneck -18.5157 -6.57632 -11.5032
upperneck 32.376 -7.56166 5.15815
head 15.0764 -3.93335 2.71589
rclavicle -7.15625e-015 -1.98785e-014
rhumerus -31.0717 -32.6968 -69.9901
rradius 25.7764
rwrist 0.591293
rhand -15.3007 11.2216
rfingers 7.12502
rthumb 10.8747 -18.4768
lclavicle -7.15625e-015 -1.98785e-014
lhumerus -23.2069 -0.941475 85.3573
lradius 54.024
lwrist -2.94731
lhand -2.9697 39.1659
lfingers 7.12502
lthumb -157.257 -112.155
rfemur -29.9706 -7.93959 21.3376
rtibia 31.7998
rfoot -5.08288 -11.7962
rtoes -5.52753
lfemur 10.2335 -2.55508 -19.7361
ltibia 21.5735
lfoot -7.14296 -6.2783
ltoes -38.389
177
root -3.76842 18.1491 14.8624 2.52469 6.80844 3.2888
lowerback 0.135897 -0.864572 -5.75228
upperback 0.0715691 -1.16154 2.96382
thorax 0.174471 -0.591419 6.31318
lowerneck -17.9754 -6.55765 -11.9568
upperneck 32.2681 -7.55609 5.47863
head 14.9463 -3.95203 2.93862
rclavicle -1.06847e-014 2.94201e-014
rhumerus -30.7408 -32.0113 -70.5293
rradius 25.8287
rwrist 0.0866143
rhand -15.5106 11.2222
rfingers 7.12502
rthumb 10.6723 -18.4868
lclavicle -1.06847e-014 2.94201e-014
lhumerus -23.7424 -0.925213 85.5562
lradius 54.6181
lwrist -2.97655
lhand -3.19315 38.3851
lfingers 7.12502
lthumb -157.471 -112.909
rfemur -29.2969 -8.20997 21.4333
rtibia 31.7017
rfoot -5.34768 -11.2912
rtoes -7.38883
lfemur 9.32602 -2.307 -19.5762
ltibia 24.0512
lfoot -5.24223 -6.99899
ltoes -36.7432
178
root -3.79836 18.1743 15.0013 2.26241 6.78805 2.96395
lowerback 0.214125 -0.762087 -5.39505
upperback 0.312005 -1.02657 3.11276
thorax 0.354968 -0.536145 6.26514
lowerneck -18.2707 -6.7591 -12.3961
upperneck 32.4171 -7.77371 5.76571
head 15.1509 -4.05466 3.0877
rclavicle -8.44835e-016 7.15625e-015
rhumerus -29.6492 -31.8428 -71.3013
rradius 25.6815
rwrist -0.0933013
rhand -15.8608 11.5196
rfingers 7.12502
rthumb 10.3345 -18.2065
lclavicle -8.44835e-016 7.15625e-015
lhumerus -23.3174 -1.54132 85.7302
lradius 54.6204
lwrist -2.678
lhand -3.04722 37.6004
lfingers 7.12502
lthumb -157.331 -113.711
rfemur -28.4343 -8.62563 22.0792
rtibia 31.4659
rfoot -5.54809 -11.002
rtoes -10.5045
lfemur 8.21923 -1.88542 -18.8629
ltibia 26.7088
lfoot -3.47406 -8.07255
ltoes -35.4435
179
root -3.83904 18.1906 15.1557 1.76883 6.55746 1.75882
lowerback 0.309759 -0.705813 -4.3292
upperback 0.566003 -0.955104 3.48484
thorax 0.541044 -0.509416 6.04526
lowerneck -18.6578 -6.77139 -12.3054
upperneck 32.667 -7.77873 5.74849
head 15.351 -4.04372 3.06113
rclavicle 2.45996e-014 -1.90833e-014
rhumerus -28.6668 -31.1032 -72.428
rradius 25.7522
rwrist -0.417245
rhand -16.1479 11.4737
rfingers 7.12502
rthumb 10.0574 -18.266
lclavicle 2.45996e-014 -1.90833e-014
lhumerus -23.2143 -1.7345 85.6725
lradius 54.8437
lwrist -2.57841
lhand -2.98493 37.1221
lfingers 7.12502
lthumb -157.272 -114.197
rfemur -27.3685 -8.06979 23.4936
rtibia 31.2835
rfoot -6.09345 -11.4609
rtoes -10.7181
lfemur 7.31219 -1.1365 -17.0807
ltibia 29.2539
lfoot -1.69023 -9.41279
ltoes -34.3863
